<svg version="1.1" xmlns="http://www.w3.org/2000/svg" xmlns:xlink="http://www.w3.org/1999/xlink" width="25" height="24" viewBox="0,0,256,245.75"><g fill="none" fill-rule="nonzero" stroke="#ffffff" stroke-width="1.5" stroke-linecap="round" stroke-linejoin="round" stroke-miterlimit="10" stroke-dasharray="" stroke-dashoffset="0" font-family="none" font-weight="none" font-size="none" text-anchor="none" style="mix-blend-mode: normal"><g transform="translate(0.00123,-0.00602) scale(10.24,10.24)"><g id="iconamoon:search"><path d="M21.5,21.0002l-4.343,-4.343M17.157,16.6572c0.7428,-0.7429 1.3321,-1.6248 1.7342,-2.5954c0.402,-0.9707 0.609,-2.011 0.609,-3.0616c0,-1.0506 -0.207,-2.09091 -0.609,-3.06154c-0.4021,-0.97063 -0.9914,-1.85257 -1.7342,-2.59545c-0.7429,-0.74289 -1.6249,-1.33218 -2.5955,-1.73423c-0.9706,-0.40205 -2.0109,-0.60898 -3.0615,-0.60898c-1.0506,0 -2.09095,0.20693 -3.06158,0.60898c-0.97063,0.40205 -1.85257,0.99134 -2.59546,1.73423c-1.50033,1.50033 -2.3432,3.53521 -2.3432,5.65699c0,2.1218 0.84287,4.1567 2.3432,5.657c1.50033,1.5003 3.53522,2.3432 5.65704,2.3432c2.1217,0 4.1566,-0.8429 5.657,-2.3432z" id="Vector"></path></g></g></g></svg>