<svg width="25" height="24" viewBox="0 0 25 24" fill="none" xmlns="http://www.w3.org/2000/svg">
<g id="Group">
<g id="Group_2">
<path id="Path" d="M12.2472 17.502C11.9721 17.502 11.747 17.727 11.75 18.0022C11.75 18.2773 11.9751 18.5024 12.2502 18.5024C12.5254 18.5024 12.7504 18.2773 12.7504 18.0022C12.7504 17.727 12.5254 17.502 12.2472 17.502" stroke="white" stroke-width="1.5" stroke-linecap="round" stroke-linejoin="round"/>
<path id="Path_2" d="M12.2472 11.5C11.9721 11.5 11.747 11.7251 11.75 12.0002C11.75 12.2753 11.9751 12.5004 12.2502 12.5004C12.5254 12.5004 12.7504 12.2753 12.7504 12.0002C12.7504 11.7251 12.5254 11.5 12.2472 11.5" stroke="white" stroke-width="1.5" stroke-linecap="round" stroke-linejoin="round"/>
<path id="Path_3" d="M12.2472 5.49707C11.9721 5.49707 11.747 5.72216 11.75 5.99728C11.75 6.27239 11.9751 6.49749 12.2502 6.49749C12.5254 6.49749 12.7504 6.27239 12.7504 5.99728C12.7504 5.72216 12.5254 5.49707 12.2472 5.49707" stroke="white" stroke-width="1.5" stroke-linecap="round" stroke-linejoin="round"/>
</g>
</g>
</svg>
